<svg width="25" height="24" viewBox="0 0 25 24" fill="none" xmlns="http://www.w3.org/2000/svg">
<path fill-rule="evenodd" clip-rule="evenodd" d="M12.3343 12C14.2299 10.0538 14.6983 7.12655 13.5048 4.68598C13.4302 4.5083 13.4642 4.30353 13.5924 4.15957C13.7205 4.01562 13.92 3.95809 14.1051 4.01169C15.5306 4.37914 16.8318 5.12146 17.8736 6.16159C21.0981 9.30287 21.1662 14.4631 18.0257 17.6884C14.8007 20.8291 9.64047 20.7615 6.49891 17.5373C5.45818 16.4962 4.71546 15.1952 4.34802 13.7698C4.29414 13.5844 4.35175 13.3846 4.49603 13.2563C4.64031 13.1281 4.84552 13.0943 5.0233 13.1695C7.46279 14.3624 10.3887 13.8944 12.3343 12Z" stroke="black" stroke-width="1.5" stroke-linecap="round" stroke-linejoin="round"/>
</svg>
