<svg width="33" height="32" viewBox="0 0 33 32" fill="none" xmlns="http://www.w3.org/2000/svg">
<rect x="0.479492" width="32" height="32" rx="16" fill="#000"/>
<rect x="4.47949" y="4" width="24" height="24" rx="12" fill="#000"/>
<path d="M20.1051 10.585L17.5974 14.3065C17.5568 14.3603 17.538 14.4274 17.5448 14.4944C17.5517 14.5614 17.5836 14.6233 17.6343 14.6677C17.6849 14.7121 17.7505 14.7357 17.8178 14.7337C17.8851 14.7317 17.9492 14.7043 17.9971 14.657L20.4648 12.5251C20.4791 12.512 20.4968 12.5034 20.5159 12.5004C20.5349 12.4973 20.5545 12.4999 20.5721 12.5079C20.5897 12.5158 20.6045 12.5288 20.6148 12.5451C20.6251 12.5614 20.6304 12.5804 20.6301 12.5997V19.3006C20.6299 19.3209 20.6235 19.3407 20.6117 19.3573C20.5999 19.3739 20.5834 19.3865 20.5643 19.3935C20.5452 19.4004 20.5244 19.4014 20.5047 19.3962C20.485 19.391 20.4674 19.38 20.4542 19.3645L12.9925 10.4371C12.8734 10.2938 12.7243 10.1783 12.5558 10.0986C12.3874 10.019 12.2035 9.97717 12.0171 9.9761H11.7573C11.4184 9.9761 11.0934 10.1107 10.8538 10.3504C10.6141 10.59 10.4795 10.915 10.4795 11.2539V20.6903C10.4795 21.0292 10.6141 21.3542 10.8538 21.5938C11.0934 21.8335 11.4184 21.9681 11.7573 21.9681C11.9757 21.9681 12.1904 21.9121 12.381 21.8055C12.5715 21.6989 12.7316 21.5452 12.8459 21.3592L15.3536 17.6377C15.3942 17.5839 15.413 17.5168 15.4062 17.4498C15.3993 17.3828 15.3674 17.3209 15.3167 17.2765C15.2661 17.2321 15.2005 17.2085 15.1332 17.2105C15.0658 17.2125 15.0018 17.2399 14.9538 17.2872L12.4862 19.4191C12.4719 19.4322 12.4542 19.4408 12.4351 19.4438C12.4161 19.4469 12.3965 19.4443 12.3789 19.4363C12.3613 19.4284 12.3465 19.4154 12.3362 19.3991C12.3258 19.3828 12.3206 19.3638 12.3209 19.3445V12.6503C12.3211 12.63 12.3275 12.6102 12.3393 12.5936C12.351 12.577 12.3676 12.5643 12.3867 12.5574C12.4058 12.5504 12.4266 12.5495 12.4463 12.5547C12.466 12.5598 12.4836 12.5709 12.4968 12.5864L19.9585 21.5137C20.0785 21.6558 20.2281 21.7699 20.3968 21.8481C20.5655 21.9264 20.7492 21.9669 20.9352 21.9668H21.2017C21.3695 21.9668 21.5356 21.9337 21.6907 21.8695C21.8457 21.8053 21.9866 21.7112 22.1052 21.5925C22.2239 21.4739 22.318 21.333 22.3822 21.178C22.4464 21.0229 22.4795 20.8568 22.4795 20.689V11.2539C22.4795 11.0854 22.4462 10.9186 22.3815 10.7631C22.3168 10.6075 22.2219 10.4663 22.1024 10.3475C21.9829 10.2288 21.8411 10.1348 21.6851 10.0711C21.5292 10.0073 21.3622 9.97505 21.1937 9.9761C20.9753 9.97613 20.7606 10.0321 20.57 10.1387C20.3795 10.2453 20.2194 10.399 20.1051 10.585Z" fill="white"/>
</svg>
