<svg width="21" height="20" viewBox="0 0 21 20" fill="none" xmlns="http://www.w3.org/2000/svg">
<path d="M10.3994 20C15.9411 20 20.3994 15.5417 20.3994 10C20.3994 4.4583 15.9411 0 10.3994 0C4.85771 0 0.399414 4.4583 0.399414 10C0.399414 15.5417 4.85771 20 10.3994 20Z" fill="#2775CA"/>
<path d="M13.1487 11.5833C13.1487 10.125 12.2737 9.62495 10.5237 9.41665C9.27373 9.24995 9.02373 8.91665 9.02373 8.33325C9.02373 7.74985 9.44043 7.37495 10.2737 7.37495C11.0237 7.37495 11.4404 7.62495 11.6487 8.24995C11.6904 8.37495 11.8154 8.45825 11.9404 8.45825H12.607C12.7737 8.45825 12.8987 8.33325 12.8987 8.16665V8.12495C12.732 7.20825 11.982 6.49995 11.0237 6.41665V5.41665C11.0237 5.24995 10.8987 5.12495 10.6904 5.08325H10.0654C9.89873 5.08325 9.77373 5.20825 9.73203 5.41665V6.37495C8.48203 6.54165 7.69043 7.37495 7.69043 8.41665C7.69043 9.79165 8.52373 10.3333 10.2737 10.5417C11.4404 10.75 11.8154 11 11.8154 11.6667C11.8154 12.3334 11.232 12.7917 10.4404 12.7917C9.35703 12.7917 8.98203 12.3333 8.85703 11.7083C8.81543 11.5417 8.69043 11.4583 8.56543 11.4583H7.85703C7.69043 11.4583 7.56543 11.5833 7.56543 11.75V11.7917C7.73203 12.8333 8.39873 13.5833 9.77373 13.7917V14.7917C9.77373 14.9583 9.89873 15.0833 10.107 15.125H10.732C10.8987 15.125 11.0237 15 11.0654 14.7917V13.7917C12.3154 13.5833 13.1487 12.7083 13.1487 11.5833Z" fill="white"/>
<path d="M8.27425 15.9582C5.02425 14.7916 3.35755 11.1666 4.56595 7.95823C5.19095 6.20823 6.56595 4.87493 8.27425 4.24993C8.44095 4.16663 8.52425 4.04163 8.52425 3.83323V3.24993C8.52425 3.08323 8.44095 2.95823 8.27425 2.91663C8.23255 2.91663 8.14925 2.91663 8.10755 2.95823C4.14925 4.20823 1.98255 8.41663 3.23255 12.3749C3.98255 14.7082 5.77425 16.4999 8.10755 17.2499C8.27425 17.3332 8.44095 17.2499 8.48255 17.0832C8.52425 17.0416 8.52425 16.9999 8.52425 16.9166V16.3332C8.52425 16.2082 8.39925 16.0416 8.27425 15.9582ZM12.691 2.95823C12.5243 2.87493 12.3575 2.95823 12.316 3.12493C12.2743 3.16663 12.2743 3.20823 12.2743 3.29163V3.87493C12.2743 4.04163 12.3993 4.20823 12.5243 4.29163C15.7743 5.45823 17.4409 9.08323 16.2325 12.2916C15.6075 14.0416 14.2325 15.3749 12.5243 15.9999C12.3575 16.0832 12.2743 16.2082 12.2743 16.4166V16.9999C12.2743 17.1666 12.3575 17.2916 12.5243 17.3332C12.5659 17.3332 12.6493 17.3332 12.691 17.2916C16.6493 16.0416 18.816 11.8332 17.566 7.87493C16.816 5.49993 14.9825 3.70823 12.691 2.95823Z" fill="white"/>
<mask id="mask0_220_19548" style="mask-type:alpha" maskUnits="userSpaceOnUse" x="0" y="0" width="21" height="20">
<path d="M10.3994 20C15.9411 20 20.3994 15.5417 20.3994 10C20.3994 4.4583 15.9411 0 10.3994 0C4.85771 0 0.399414 4.4583 0.399414 10C0.399414 15.5417 4.85771 20 10.3994 20Z" fill="#2775CA"/>
</mask>
<g mask="url(#mask0_220_19548)">
<mask id="mask1_220_19548" style="mask-type:alpha" maskUnits="userSpaceOnUse" x="0" y="0" width="21" height="20">
<path d="M10.1992 0C15.7218 0 20.1992 4.4774 20.1992 10C20.1992 15.5226 15.7216 20 10.1992 20C4.67682 20 0.199219 15.5238 0.199219 10C0.199219 4.4762 4.67602 0 10.1992 0Z" fill="#53AE94"/>
</mask>
<g mask="url(#mask1_220_19548)">
<rect x="13.4365" y="-10" width="4.52334" height="32.0148" transform="rotate(45 13.4365 -10)" fill="url(#paint0_linear_220_19548)"/>
</g>
</g>
<defs>
<linearGradient id="paint0_linear_220_19548" x1="11.7136" y1="20.0071" x2="9.09249" y2="18.7573" gradientUnits="userSpaceOnUse">
<stop stop-color="#99FFC6"/>
<stop offset="1" stop-color="#F80B52"/>
</linearGradient>
</defs>
</svg>
