<svg width="20" height="20" viewBox="0 0 20 20" fill="none" xmlns="http://www.w3.org/2000/svg">
<path d="M10 20C15.5417 20 20 15.5417 20 10C20 4.4583 15.5417 0 10 0C4.4583 0 0 4.4583 0 10C0 15.5417 4.4583 20 10 20Z" fill="#2775CA"/>
<path d="M12.7493 11.5833C12.7493 10.125 11.8743 9.62495 10.1243 9.41665C8.87432 9.24995 8.62432 8.91665 8.62432 8.33325C8.62432 7.74985 9.04102 7.37495 9.87432 7.37495C10.6243 7.37495 11.041 7.62495 11.2493 8.24995C11.291 8.37495 11.416 8.45825 11.541 8.45825H12.2076C12.3743 8.45825 12.4993 8.33325 12.4993 8.16665V8.12495C12.3326 7.20825 11.5826 6.49995 10.6243 6.41665V5.41665C10.6243 5.24995 10.4993 5.12495 10.291 5.08325H9.66602C9.49932 5.08325 9.37432 5.20825 9.33262 5.41665V6.37495C8.08262 6.54165 7.29102 7.37495 7.29102 8.41665C7.29102 9.79165 8.12432 10.3333 9.87432 10.5417C11.041 10.75 11.416 11 11.416 11.6667C11.416 12.3334 10.8326 12.7917 10.041 12.7917C8.95762 12.7917 8.58262 12.3333 8.45762 11.7083C8.41602 11.5417 8.29102 11.4583 8.16602 11.4583H7.45762C7.29102 11.4583 7.16602 11.5833 7.16602 11.75V11.7917C7.33262 12.8333 7.99932 13.5833 9.37432 13.7917V14.7917C9.37432 14.9583 9.49932 15.0833 9.70762 15.125H10.3326C10.4993 15.125 10.6243 15 10.666 14.7917V13.7917C11.916 13.5833 12.7493 12.7083 12.7493 11.5833Z" fill="white"/>
<path d="M7.87484 15.9582C4.62484 14.7916 2.95814 11.1666 4.16654 7.95823C4.79154 6.20823 6.16654 4.87493 7.87484 4.24993C8.04154 4.16663 8.12484 4.04163 8.12484 3.83323V3.24993C8.12484 3.08323 8.04154 2.95823 7.87484 2.91663C7.83314 2.91663 7.74984 2.91663 7.70814 2.95823C3.74984 4.20823 1.58314 8.41663 2.83314 12.3749C3.58314 14.7082 5.37484 16.4999 7.70814 17.2499C7.87484 17.3332 8.04154 17.2499 8.08314 17.0832C8.12484 17.0416 8.12484 16.9999 8.12484 16.9166V16.3332C8.12484 16.2082 7.99984 16.0416 7.87484 15.9582ZM12.2915 2.95823C12.1248 2.87493 11.9581 2.95823 11.9165 3.12493C11.8748 3.16663 11.8748 3.20823 11.8748 3.29163V3.87493C11.8748 4.04163 11.9998 4.20823 12.1248 4.29163C15.3748 5.45823 17.0415 9.08323 15.8331 12.2916C15.2081 14.0416 13.8331 15.3749 12.1248 15.9999C11.9581 16.0832 11.8748 16.2082 11.8748 16.4166V16.9999C11.8748 17.1666 11.9581 17.2916 12.1248 17.3332C12.1665 17.3332 12.2498 17.3332 12.2915 17.2916C16.2498 16.0416 18.4165 11.8332 17.1665 7.87493C16.4165 5.49993 14.5831 3.70823 12.2915 2.95823Z" fill="white"/>
<mask id="mask0_220_19534" style="mask-type:alpha" maskUnits="userSpaceOnUse" x="0" y="0" width="20" height="20">
<path d="M10 20C15.5417 20 20 15.5417 20 10C20 4.4583 15.5417 0 10 0C4.4583 0 0 4.4583 0 10C0 15.5417 4.4583 20 10 20Z" fill="#2775CA"/>
</mask>
<g mask="url(#mask0_220_19534)">
<mask id="mask1_220_19534" style="mask-type:alpha" maskUnits="userSpaceOnUse" x="-1" y="0" width="21" height="20">
<path d="M9.7998 0C15.3224 0 19.7998 4.4774 19.7998 10C19.7998 15.5226 15.3222 20 9.7998 20C4.2774 20 -0.200195 15.5238 -0.200195 10C-0.200195 4.4762 4.2766 0 9.7998 0Z" fill="#53AE94"/>
</mask>
<g mask="url(#mask1_220_19534)">
<rect x="13.0371" y="-10" width="4.52334" height="32.0148" transform="rotate(45 13.0371 -10)" fill="url(#paint0_linear_220_19534)"/>
</g>
</g>
<defs>
<linearGradient id="paint0_linear_220_19534" x1="13.0371" y1="-7.99907" x2="18.2191" y2="-7.90589" gradientUnits="userSpaceOnUse">
<stop stop-color="#00C1FF"/>
<stop offset="1" stop-color="#3337FF"/>
</linearGradient>
</defs>
</svg>
